<svg width="1616" height="685" viewBox="0 0 1616 685" fill="none" xmlns="http://www.w3.org/2000/svg">
<rect x="0.5" y="16.5" width="1142" height="668" stroke="black"/>
<rect x="0.5" y="16.5" width="1142" height="668" stroke="black"/>
<line x1="595" y1="614" x2="595" y2="151" stroke="black" stroke-width="2"/>
<path d="M661.141 483V466.636H664.199V469.3H664.401C664.742 468.398 665.3 467.695 666.074 467.19C666.848 466.679 667.775 466.423 668.854 466.423C669.948 466.423 670.864 466.679 671.603 467.19C672.349 467.702 672.899 468.405 673.254 469.3H673.425C673.815 468.426 674.437 467.73 675.289 467.212C676.141 466.686 677.157 466.423 678.336 466.423C679.82 466.423 681.031 466.888 681.969 467.819C682.913 468.749 683.386 470.152 683.386 472.027V483H680.2V472.325C680.2 471.217 679.898 470.415 679.295 469.918C678.691 469.42 677.97 469.172 677.132 469.172C676.095 469.172 675.289 469.491 674.714 470.131C674.138 470.763 673.851 471.576 673.851 472.57V483H670.676V472.123C670.676 471.235 670.399 470.521 669.845 469.982C669.291 469.442 668.57 469.172 667.683 469.172C667.079 469.172 666.521 469.332 666.01 469.651C665.506 469.964 665.097 470.401 664.785 470.962C664.479 471.523 664.327 472.173 664.327 472.911V483H661.141ZM687.655 483V466.636H690.84V483H687.655ZM689.264 464.112C688.71 464.112 688.234 463.927 687.836 463.558C687.445 463.181 687.25 462.734 687.25 462.215C687.25 461.69 687.445 461.242 687.836 460.873C688.234 460.496 688.71 460.308 689.264 460.308C689.818 460.308 690.29 460.496 690.681 460.873C691.078 461.242 691.277 461.69 691.277 462.215C691.277 462.734 691.078 463.181 690.681 463.558C690.29 463.927 689.818 464.112 689.264 464.112ZM702.018 483.33C700.435 483.33 699.071 482.972 697.928 482.254C696.791 481.53 695.918 480.532 695.307 479.261C694.696 477.989 694.391 476.533 694.391 474.893C694.391 473.231 694.703 471.764 695.328 470.493C695.953 469.214 696.834 468.217 697.97 467.499C699.107 466.782 700.445 466.423 701.987 466.423C703.229 466.423 704.337 466.654 705.31 467.116C706.283 467.57 707.068 468.21 707.665 469.033C708.268 469.857 708.627 470.82 708.741 471.92H705.641C705.47 471.153 705.08 470.493 704.469 469.939C703.865 469.385 703.055 469.108 702.04 469.108C701.152 469.108 700.374 469.342 699.707 469.811C699.046 470.273 698.531 470.933 698.162 471.793C697.793 472.645 697.608 473.653 697.608 474.818C697.608 476.011 697.789 477.041 698.151 477.908C698.513 478.774 699.025 479.445 699.685 479.921C700.353 480.397 701.138 480.635 702.04 480.635C702.643 480.635 703.19 480.525 703.68 480.305C704.178 480.077 704.593 479.754 704.927 479.335C705.268 478.916 705.506 478.412 705.641 477.822H708.741C708.627 478.881 708.283 479.825 707.707 480.656C707.132 481.487 706.362 482.141 705.396 482.616C704.437 483.092 703.311 483.33 702.018 483.33ZM715.333 473.284V483H712.147V461.182H715.29V469.3H715.492C715.876 468.419 716.462 467.719 717.25 467.201C718.039 466.683 719.068 466.423 720.34 466.423C721.462 466.423 722.442 466.654 723.28 467.116C724.125 467.577 724.779 468.266 725.24 469.183C725.709 470.092 725.943 471.228 725.943 472.592V483H722.758V472.975C722.758 471.775 722.449 470.844 721.831 470.184C721.213 469.516 720.354 469.183 719.253 469.183C718.5 469.183 717.825 469.342 717.229 469.662C716.639 469.982 716.174 470.45 715.833 471.068C715.499 471.679 715.333 472.418 715.333 473.284ZM734.956 483.362C733.919 483.362 732.982 483.17 732.144 482.787C731.306 482.396 730.642 481.832 730.151 481.093C729.669 480.354 729.427 479.449 729.427 478.376C729.427 477.453 729.605 476.693 729.96 476.097C730.315 475.5 730.794 475.028 731.398 474.68C732.002 474.332 732.676 474.069 733.422 473.891C734.168 473.714 734.928 473.579 735.702 473.487C736.682 473.373 737.477 473.281 738.088 473.21C738.699 473.131 739.143 473.007 739.42 472.837C739.697 472.666 739.835 472.389 739.835 472.006V471.931C739.835 471.001 739.573 470.28 739.047 469.768C738.529 469.257 737.754 469.001 736.725 469.001C735.652 469.001 734.807 469.239 734.189 469.715C733.578 470.184 733.156 470.706 732.921 471.281L729.928 470.599C730.283 469.605 730.801 468.803 731.483 468.192C732.172 467.574 732.964 467.126 733.859 466.849C734.754 466.565 735.695 466.423 736.682 466.423C737.335 466.423 738.028 466.501 738.759 466.658C739.498 466.807 740.187 467.084 740.826 467.489C741.472 467.893 742.002 468.472 742.414 469.225C742.825 469.971 743.031 470.94 743.031 472.134V483H739.921V480.763H739.793C739.587 481.175 739.278 481.58 738.866 481.977C738.454 482.375 737.925 482.705 737.279 482.968C736.632 483.231 735.858 483.362 734.956 483.362ZM735.649 480.805C736.529 480.805 737.282 480.631 737.907 480.283C738.539 479.935 739.019 479.481 739.345 478.92C739.679 478.352 739.846 477.744 739.846 477.098V474.989C739.732 475.102 739.512 475.209 739.186 475.308C738.866 475.401 738.5 475.482 738.088 475.553C737.676 475.617 737.275 475.678 736.884 475.734C736.494 475.784 736.167 475.827 735.904 475.862C735.286 475.94 734.722 476.072 734.21 476.256C733.706 476.441 733.301 476.707 732.996 477.055C732.698 477.396 732.548 477.851 732.548 478.419C732.548 479.207 732.84 479.804 733.422 480.209C734.004 480.607 734.747 480.805 735.649 480.805ZM750.46 461.182V483H747.274V461.182H750.46ZM754.745 483V466.636H757.93V483H754.745ZM756.354 464.112C755.8 464.112 755.324 463.927 754.926 463.558C754.535 463.181 754.34 462.734 754.34 462.215C754.34 461.69 754.535 461.242 754.926 460.873C755.324 460.496 755.8 460.308 756.354 460.308C756.907 460.308 757.38 460.496 757.77 460.873C758.168 461.242 758.367 461.69 758.367 462.215C758.367 462.734 758.168 463.181 757.77 463.558C757.38 463.927 756.907 464.112 756.354 464.112ZM765.401 473.284V483H762.216V466.636H765.273V469.3H765.475C765.852 468.433 766.441 467.737 767.244 467.212C768.054 466.686 769.073 466.423 770.301 466.423C771.417 466.423 772.393 466.658 773.231 467.126C774.069 467.588 774.719 468.277 775.181 469.193C775.642 470.109 775.873 471.242 775.873 472.592V483H772.688V472.975C772.688 471.789 772.379 470.862 771.761 470.195C771.143 469.52 770.294 469.183 769.215 469.183C768.476 469.183 767.819 469.342 767.244 469.662C766.676 469.982 766.225 470.45 765.891 471.068C765.564 471.679 765.401 472.418 765.401 473.284ZM784.907 483.362C783.87 483.362 782.933 483.17 782.095 482.787C781.257 482.396 780.593 481.832 780.103 481.093C779.62 480.354 779.378 479.449 779.378 478.376C779.378 477.453 779.556 476.693 779.911 476.097C780.266 475.5 780.745 475.028 781.349 474.68C781.953 474.332 782.627 474.069 783.373 473.891C784.119 473.714 784.879 473.579 785.653 473.487C786.633 473.373 787.429 473.281 788.039 473.21C788.65 473.131 789.094 473.007 789.371 472.837C789.648 472.666 789.787 472.389 789.787 472.006V471.931C789.787 471.001 789.524 470.28 788.998 469.768C788.48 469.257 787.706 469.001 786.676 469.001C785.603 469.001 784.758 469.239 784.14 469.715C783.529 470.184 783.107 470.706 782.873 471.281L779.879 470.599C780.234 469.605 780.752 468.803 781.434 468.192C782.123 467.574 782.915 467.126 783.81 466.849C784.705 466.565 785.646 466.423 786.633 466.423C787.287 466.423 787.979 466.501 788.711 466.658C789.449 466.807 790.138 467.084 790.777 467.489C791.424 467.893 791.953 468.472 792.365 469.225C792.777 469.971 792.983 470.94 792.983 472.134V483H789.872V480.763H789.744C789.538 481.175 789.229 481.58 788.817 481.977C788.405 482.375 787.876 482.705 787.23 482.968C786.583 483.231 785.809 483.362 784.907 483.362ZM785.6 480.805C786.48 480.805 787.233 480.631 787.858 480.283C788.49 479.935 788.97 479.481 789.297 478.92C789.63 478.352 789.797 477.744 789.797 477.098V474.989C789.684 475.102 789.463 475.209 789.137 475.308C788.817 475.401 788.451 475.482 788.039 475.553C787.627 475.617 787.226 475.678 786.836 475.734C786.445 475.784 786.118 475.827 785.855 475.862C785.238 475.94 784.673 476.072 784.162 476.256C783.657 476.441 783.252 476.707 782.947 477.055C782.649 477.396 782.5 477.851 782.5 478.419C782.5 479.207 782.791 479.804 783.373 480.209C783.956 480.607 784.698 480.805 785.6 480.805ZM799.324 483.202C798.742 483.202 798.241 482.996 797.822 482.585C797.403 482.165 797.193 481.661 797.193 481.072C797.193 480.489 797.403 479.992 797.822 479.58C798.241 479.161 798.742 478.952 799.324 478.952C799.906 478.952 800.407 479.161 800.826 479.58C801.245 479.992 801.455 480.489 801.455 481.072C801.455 481.462 801.355 481.821 801.156 482.148C800.965 482.467 800.709 482.723 800.389 482.915C800.07 483.107 799.715 483.202 799.324 483.202ZM812.614 483.33C811.08 483.33 809.741 482.979 808.598 482.276C807.454 481.572 806.567 480.589 805.934 479.325C805.302 478.06 804.986 476.583 804.986 474.893C804.986 473.195 805.302 471.711 805.934 470.44C806.567 469.168 807.454 468.181 808.598 467.478C809.741 466.775 811.08 466.423 812.614 466.423C814.148 466.423 815.487 466.775 816.631 467.478C817.774 468.181 818.662 469.168 819.294 470.44C819.926 471.711 820.242 473.195 820.242 474.893C820.242 476.583 819.926 478.06 819.294 479.325C818.662 480.589 817.774 481.572 816.631 482.276C815.487 482.979 814.148 483.33 812.614 483.33ZM812.625 480.656C813.619 480.656 814.443 480.393 815.096 479.868C815.75 479.342 816.233 478.643 816.545 477.769C816.865 476.896 817.025 475.933 817.025 474.882C817.025 473.838 816.865 472.879 816.545 472.006C816.233 471.125 815.75 470.418 815.096 469.886C814.443 469.353 813.619 469.087 812.625 469.087C811.623 469.087 810.792 469.353 810.132 469.886C809.479 470.418 808.992 471.125 808.672 472.006C808.36 472.879 808.204 473.838 808.204 474.882C808.204 475.933 808.36 476.896 808.672 477.769C808.992 478.643 809.479 479.342 810.132 479.868C810.792 480.393 811.623 480.656 812.625 480.656ZM826.983 473.284V483H823.798V466.636H826.855V469.3H827.058C827.434 468.433 828.023 467.737 828.826 467.212C829.636 466.686 830.655 466.423 831.884 466.423C832.999 466.423 833.975 466.658 834.813 467.126C835.651 467.588 836.301 468.277 836.763 469.193C837.224 470.109 837.455 471.242 837.455 472.592V483H834.27V472.975C834.27 471.789 833.961 470.862 833.343 470.195C832.725 469.52 831.876 469.183 830.797 469.183C830.058 469.183 829.401 469.342 828.826 469.662C828.258 469.982 827.807 470.45 827.473 471.068C827.146 471.679 826.983 472.418 826.983 473.284ZM841.727 483V466.636H844.913V483H841.727ZM843.336 464.112C842.782 464.112 842.306 463.927 841.908 463.558C841.518 463.181 841.322 462.734 841.322 462.215C841.322 461.69 841.518 461.242 841.908 460.873C842.306 460.496 842.782 460.308 843.336 460.308C843.89 460.308 844.362 460.496 844.753 460.873C845.151 461.242 845.349 461.69 845.349 462.215C845.349 462.734 845.151 463.181 844.753 463.558C844.362 463.927 843.89 464.112 843.336 464.112ZM861.46 470.631L858.573 471.143C858.452 470.773 858.26 470.422 857.998 470.088C857.742 469.754 857.394 469.481 856.954 469.268C856.513 469.055 855.963 468.948 855.302 468.948C854.4 468.948 853.648 469.151 853.044 469.555C852.44 469.953 852.138 470.468 852.138 471.1C852.138 471.647 852.341 472.087 852.746 472.421C853.15 472.755 853.804 473.028 854.706 473.241L857.305 473.838C858.811 474.186 859.933 474.722 860.672 475.447C861.41 476.171 861.78 477.112 861.78 478.27C861.78 479.25 861.496 480.124 860.927 480.891C860.366 481.651 859.581 482.247 858.573 482.68C857.572 483.114 856.41 483.33 855.089 483.33C853.257 483.33 851.762 482.94 850.604 482.158C849.447 481.37 848.736 480.251 848.474 478.803L851.552 478.334C851.744 479.136 852.138 479.744 852.735 480.156C853.331 480.56 854.109 480.763 855.068 480.763C856.112 480.763 856.947 480.546 857.572 480.113C858.197 479.673 858.509 479.136 858.509 478.504C858.509 477.993 858.317 477.563 857.934 477.215C857.557 476.867 856.979 476.604 856.197 476.427L853.427 475.82C851.9 475.472 850.771 474.918 850.04 474.158C849.315 473.398 848.953 472.435 848.953 471.271C848.953 470.305 849.223 469.46 849.763 468.735C850.302 468.011 851.048 467.446 852 467.041C852.952 466.629 854.042 466.423 855.27 466.423C857.039 466.423 858.431 466.807 859.447 467.574C860.462 468.334 861.133 469.353 861.46 470.631ZM864.941 483V480.816L873.805 469.555V469.406H865.229V466.636H877.778V468.959L869.256 480.081V480.23H878.077V483H864.941ZM888.259 483.33C886.675 483.33 885.311 482.972 884.168 482.254C883.031 481.53 882.158 480.532 881.547 479.261C880.936 477.989 880.631 476.533 880.631 474.893C880.631 473.231 880.943 471.764 881.568 470.493C882.193 469.214 883.074 468.217 884.21 467.499C885.347 466.782 886.686 466.423 888.227 466.423C889.47 466.423 890.578 466.654 891.551 467.116C892.524 467.57 893.308 468.21 893.905 469.033C894.509 469.857 894.867 470.82 894.981 471.92H891.881C891.71 471.153 891.32 470.493 890.709 469.939C890.105 469.385 889.296 469.108 888.28 469.108C887.392 469.108 886.615 469.342 885.947 469.811C885.286 470.273 884.771 470.933 884.402 471.793C884.033 472.645 883.848 473.653 883.848 474.818C883.848 476.011 884.029 477.041 884.392 477.908C884.754 478.774 885.265 479.445 885.926 479.921C886.593 480.397 887.378 480.635 888.28 480.635C888.884 480.635 889.431 480.525 889.921 480.305C890.418 480.077 890.833 479.754 891.167 479.335C891.508 478.916 891.746 478.412 891.881 477.822H894.981C894.867 478.881 894.523 479.825 893.948 480.656C893.372 481.487 892.602 482.141 891.636 482.616C890.677 483.092 889.551 483.33 888.259 483.33ZM898.047 483V480.816L906.91 469.555V469.406H898.334V466.636H910.884V468.959L902.361 480.081V480.23H911.182V483H898.047ZM925.306 476.214V466.636H928.502V483H925.37V480.166H925.199C924.823 481.04 924.219 481.768 923.388 482.35C922.564 482.925 921.538 483.213 920.309 483.213C919.258 483.213 918.328 482.982 917.518 482.521C916.716 482.052 916.084 481.359 915.622 480.443C915.167 479.527 914.94 478.394 914.94 477.045V466.636H918.126V476.661C918.126 477.776 918.434 478.664 919.052 479.325C919.67 479.985 920.473 480.315 921.46 480.315C922.057 480.315 922.65 480.166 923.239 479.868C923.836 479.57 924.329 479.119 924.72 478.515C925.118 477.911 925.313 477.144 925.306 476.214ZM935.712 477.45L935.69 473.561H936.244L942.764 466.636H946.578L939.142 474.52H938.641L935.712 477.45ZM932.782 483V461.182H935.967V483H932.782ZM943.116 483L937.256 475.223L939.451 472.996L947.026 483H943.116ZM962.617 488.934C960.415 488.934 958.462 488.632 956.757 488.028C955.06 487.432 953.629 486.551 952.464 485.386C951.299 484.229 950.415 482.808 949.811 481.125C949.208 479.442 948.906 477.521 948.906 475.362C948.906 473.259 949.211 471.37 949.822 469.694C950.433 468.018 951.321 466.59 952.485 465.411C953.657 464.225 955.081 463.32 956.757 462.695C958.434 462.07 960.337 461.757 962.468 461.757C964.506 461.757 966.303 462.077 967.858 462.716C969.414 463.355 970.721 464.232 971.779 465.347C972.844 466.462 973.647 467.741 974.186 469.183C974.726 470.624 974.996 472.148 974.996 473.753C974.996 474.875 974.925 475.972 974.783 477.045C974.641 478.11 974.378 479.076 973.995 479.942C973.618 480.802 973.071 481.491 972.354 482.009C971.644 482.521 970.721 482.787 969.584 482.808C968.98 482.83 968.395 482.759 967.826 482.595C967.258 482.432 966.775 482.169 966.377 481.807C965.98 481.438 965.738 480.969 965.653 480.401H965.525C965.355 480.82 965.071 481.21 964.673 481.572C964.275 481.928 963.767 482.212 963.15 482.425C962.539 482.631 961.828 482.716 961.019 482.68C960.124 482.645 959.318 482.442 958.6 482.073C957.883 481.704 957.269 481.192 956.757 480.539C956.253 479.886 955.866 479.112 955.596 478.217C955.326 477.322 955.191 476.327 955.191 475.234C955.191 474.183 955.344 473.241 955.65 472.411C955.955 471.572 956.37 470.852 956.896 470.248C957.429 469.637 958.039 469.154 958.728 468.799C959.417 468.444 960.145 468.22 960.912 468.128C961.658 468.043 962.343 468.064 962.968 468.192C963.593 468.32 964.112 468.515 964.524 468.778C964.943 469.04 965.206 469.328 965.312 469.641H965.451V468.447H968.071V478.334C968.071 478.895 968.217 479.371 968.508 479.761C968.806 480.152 969.229 480.347 969.776 480.347C970.422 480.347 970.926 480.109 971.289 479.634C971.658 479.158 971.917 478.426 972.066 477.439C972.223 476.452 972.301 475.187 972.301 473.646C972.301 472.567 972.155 471.551 971.864 470.599C971.58 469.641 971.157 468.774 970.596 468C970.042 467.219 969.36 466.548 968.551 465.987C967.741 465.425 966.818 464.992 965.781 464.687C964.751 464.381 963.611 464.229 962.361 464.229C960.664 464.229 959.154 464.491 957.833 465.017C956.512 465.536 955.397 466.285 954.488 467.265C953.586 468.245 952.901 469.42 952.432 470.791C951.971 472.155 951.74 473.685 951.74 475.383C951.74 477.151 951.978 478.721 952.453 480.092C952.929 481.455 953.632 482.606 954.563 483.543C955.493 484.481 956.644 485.191 958.015 485.674C959.385 486.164 960.966 486.409 962.755 486.409C963.551 486.409 964.332 486.338 965.099 486.196C965.866 486.061 966.548 485.905 967.145 485.727C967.748 485.557 968.199 485.418 968.498 485.312L969.243 487.645C968.803 487.851 968.217 488.053 967.485 488.252C966.761 488.451 965.973 488.614 965.12 488.742C964.275 488.87 963.441 488.934 962.617 488.934ZM961.637 480.07C962.56 480.07 963.302 479.886 963.863 479.516C964.431 479.147 964.84 478.597 965.088 477.865C965.344 477.126 965.472 476.203 965.472 475.095C965.465 474.016 965.326 473.156 965.056 472.517C964.794 471.871 964.382 471.409 963.821 471.132C963.267 470.848 962.553 470.706 961.679 470.706C960.877 470.706 960.191 470.901 959.623 471.292C959.062 471.683 958.632 472.212 958.334 472.879C958.043 473.547 957.894 474.289 957.887 475.106C957.894 475.965 958.015 476.775 958.249 477.535C958.49 478.288 958.881 478.898 959.421 479.367C959.968 479.836 960.706 480.07 961.637 480.07ZM985.375 489.477C984.075 489.477 982.957 489.307 982.019 488.966C981.089 488.625 980.329 488.174 979.74 487.613C979.15 487.052 978.71 486.438 978.419 485.77L981.156 484.641C981.348 484.953 981.604 485.283 981.923 485.631C982.25 485.987 982.691 486.288 983.244 486.537C983.806 486.786 984.526 486.91 985.407 486.91C986.615 486.91 987.612 486.615 988.401 486.026C989.189 485.443 989.583 484.513 989.583 483.234V480.017H989.381C989.189 480.365 988.912 480.752 988.55 481.178C988.195 481.604 987.705 481.974 987.08 482.286C986.455 482.599 985.642 482.755 984.64 482.755C983.347 482.755 982.183 482.453 981.146 481.849C980.116 481.239 979.299 480.34 978.695 479.154C978.099 477.961 977.801 476.494 977.801 474.754C977.801 473.014 978.095 471.523 978.685 470.28C979.281 469.037 980.098 468.085 981.135 467.425C982.172 466.757 983.347 466.423 984.661 466.423C985.677 466.423 986.497 466.594 987.122 466.935C987.747 467.268 988.234 467.659 988.582 468.107C988.937 468.554 989.21 468.948 989.402 469.289H989.637V466.636H992.758V483.362C992.758 484.768 992.431 485.923 991.778 486.825C991.124 487.727 990.24 488.394 989.125 488.827C988.017 489.261 986.767 489.477 985.375 489.477ZM985.343 480.113C986.259 480.113 987.034 479.9 987.666 479.474C988.305 479.04 988.788 478.423 989.115 477.62C989.448 476.81 989.615 475.841 989.615 474.712C989.615 473.611 989.452 472.641 989.125 471.803C988.798 470.965 988.319 470.312 987.687 469.843C987.055 469.367 986.274 469.129 985.343 469.129C984.384 469.129 983.585 469.378 982.946 469.875C982.307 470.365 981.824 471.033 981.497 471.878C981.178 472.723 981.018 473.668 981.018 474.712C981.018 475.784 981.181 476.725 981.508 477.535C981.835 478.344 982.318 478.977 982.957 479.431C983.603 479.886 984.399 480.113 985.343 480.113ZM997.03 483V466.636H1000.09V469.3H1000.29C1000.63 468.398 1001.19 467.695 1001.96 467.19C1002.74 466.679 1003.66 466.423 1004.74 466.423C1005.84 466.423 1006.75 466.679 1007.49 467.19C1008.24 467.702 1008.79 468.405 1009.14 469.3H1009.31C1009.7 468.426 1010.33 467.73 1011.18 467.212C1012.03 466.686 1013.05 466.423 1014.22 466.423C1015.71 466.423 1016.92 466.888 1017.86 467.819C1018.8 468.749 1019.27 470.152 1019.27 472.027V483H1016.09V472.325C1016.09 471.217 1015.79 470.415 1015.18 469.918C1014.58 469.42 1013.86 469.172 1013.02 469.172C1011.98 469.172 1011.18 469.491 1010.6 470.131C1010.03 470.763 1009.74 471.576 1009.74 472.57V483H1006.56V472.123C1006.56 471.235 1006.29 470.521 1005.73 469.982C1005.18 469.442 1004.46 469.172 1003.57 469.172C1002.97 469.172 1002.41 469.332 1001.9 469.651C1001.39 469.964 1000.99 470.401 1000.67 470.962C1000.37 471.523 1000.22 472.173 1000.22 472.911V483H997.03ZM1028.31 483.362C1027.27 483.362 1026.33 483.17 1025.49 482.787C1024.66 482.396 1023.99 481.832 1023.5 481.093C1023.02 480.354 1022.78 479.449 1022.78 478.376C1022.78 477.453 1022.95 476.693 1023.31 476.097C1023.66 475.5 1024.14 475.028 1024.75 474.68C1025.35 474.332 1026.03 474.069 1026.77 473.891C1027.52 473.714 1028.28 473.579 1029.05 473.487C1030.03 473.373 1030.83 473.281 1031.44 473.21C1032.05 473.131 1032.49 473.007 1032.77 472.837C1033.05 472.666 1033.19 472.389 1033.19 472.006V471.931C1033.19 471.001 1032.92 470.28 1032.4 469.768C1031.88 469.257 1031.1 469.001 1030.07 469.001C1029 469.001 1028.16 469.239 1027.54 469.715C1026.93 470.184 1026.51 470.706 1026.27 471.281L1023.28 470.599C1023.63 469.605 1024.15 468.803 1024.83 468.192C1025.52 467.574 1026.31 467.126 1027.21 466.849C1028.1 466.565 1029.04 466.423 1030.03 466.423C1030.69 466.423 1031.38 466.501 1032.11 466.658C1032.85 466.807 1033.54 467.084 1034.18 467.489C1034.82 467.893 1035.35 468.472 1035.76 469.225C1036.18 469.971 1036.38 470.94 1036.38 472.134V483H1033.27V480.763H1033.14C1032.94 481.175 1032.63 481.58 1032.22 481.977C1031.8 482.375 1031.27 482.705 1030.63 482.968C1029.98 483.231 1029.21 483.362 1028.31 483.362ZM1029 480.805C1029.88 480.805 1030.63 480.631 1031.26 480.283C1031.89 479.935 1032.37 479.481 1032.69 478.92C1033.03 478.352 1033.2 477.744 1033.2 477.098V474.989C1033.08 475.102 1032.86 475.209 1032.54 475.308C1032.22 475.401 1031.85 475.482 1031.44 475.553C1031.03 475.617 1030.62 475.678 1030.23 475.734C1029.84 475.784 1029.52 475.827 1029.25 475.862C1028.64 475.94 1028.07 476.072 1027.56 476.256C1027.06 476.441 1026.65 476.707 1026.35 477.055C1026.05 477.396 1025.9 477.851 1025.9 478.419C1025.9 479.207 1026.19 479.804 1026.77 480.209C1027.35 480.607 1028.1 480.805 1029 480.805ZM1040.62 483V466.636H1043.81V483H1040.62ZM1042.23 464.112C1041.68 464.112 1041.2 463.927 1040.8 463.558C1040.41 463.181 1040.22 462.734 1040.22 462.215C1040.22 461.69 1040.41 461.242 1040.8 460.873C1041.2 460.496 1041.68 460.308 1042.23 460.308C1042.79 460.308 1043.26 460.496 1043.65 460.873C1044.05 461.242 1044.25 461.69 1044.25 462.215C1044.25 462.734 1044.05 463.181 1043.65 463.558C1043.26 463.927 1042.79 464.112 1042.23 464.112ZM1051.28 461.182V483H1048.09V461.182H1051.28ZM1057.66 483.202C1057.08 483.202 1056.58 482.996 1056.16 482.585C1055.74 482.165 1055.53 481.661 1055.53 481.072C1055.53 480.489 1055.74 479.992 1056.16 479.58C1056.58 479.161 1057.08 478.952 1057.66 478.952C1058.25 478.952 1058.75 479.161 1059.17 479.58C1059.59 479.992 1059.79 480.489 1059.79 481.072C1059.79 481.462 1059.7 481.821 1059.5 482.148C1059.3 482.467 1059.05 482.723 1058.73 482.915C1058.41 483.107 1058.05 483.202 1057.66 483.202ZM1070.95 483.33C1069.37 483.33 1068.01 482.972 1066.86 482.254C1065.73 481.53 1064.85 480.532 1064.24 479.261C1063.63 477.989 1063.33 476.533 1063.33 474.893C1063.33 473.231 1063.64 471.764 1064.26 470.493C1064.89 469.214 1065.77 468.217 1066.91 467.499C1068.04 466.782 1069.38 466.423 1070.92 466.423C1072.16 466.423 1073.27 466.654 1074.25 467.116C1075.22 467.57 1076 468.21 1076.6 469.033C1077.2 469.857 1077.56 470.82 1077.68 471.92H1074.58C1074.41 471.153 1074.02 470.493 1073.4 469.939C1072.8 469.385 1071.99 469.108 1070.98 469.108C1070.09 469.108 1069.31 469.342 1068.64 469.811C1067.98 470.273 1067.47 470.933 1067.1 471.793C1066.73 472.645 1066.54 473.653 1066.54 474.818C1066.54 476.011 1066.72 477.041 1067.09 477.908C1067.45 478.774 1067.96 479.445 1068.62 479.921C1069.29 480.397 1070.07 480.635 1070.98 480.635C1071.58 480.635 1072.13 480.525 1072.62 480.305C1073.11 480.077 1073.53 479.754 1073.86 479.335C1074.2 478.916 1074.44 478.412 1074.58 477.822H1077.68C1077.56 478.881 1077.22 479.825 1076.64 480.656C1076.07 481.487 1075.3 482.141 1074.33 482.616C1073.37 483.092 1072.25 483.33 1070.95 483.33ZM1087.98 483.33C1086.44 483.33 1085.1 482.979 1083.96 482.276C1082.82 481.572 1081.93 480.589 1081.3 479.325C1080.66 478.06 1080.35 476.583 1080.35 474.893C1080.35 473.195 1080.66 471.711 1081.3 470.44C1081.93 469.168 1082.82 468.181 1083.96 467.478C1085.1 466.775 1086.44 466.423 1087.98 466.423C1089.51 466.423 1090.85 466.775 1091.99 467.478C1093.14 468.181 1094.02 469.168 1094.66 470.44C1095.29 471.711 1095.6 473.195 1095.6 474.893C1095.6 476.583 1095.29 478.06 1094.66 479.325C1094.02 480.589 1093.14 481.572 1091.99 482.276C1090.85 482.979 1089.51 483.33 1087.98 483.33ZM1087.99 480.656C1088.98 480.656 1089.8 480.393 1090.46 479.868C1091.11 479.342 1091.59 478.643 1091.91 477.769C1092.23 476.896 1092.39 475.933 1092.39 474.882C1092.39 473.838 1092.23 472.879 1091.91 472.006C1091.59 471.125 1091.11 470.418 1090.46 469.886C1089.8 469.353 1088.98 469.087 1087.99 469.087C1086.98 469.087 1086.15 469.353 1085.49 469.886C1084.84 470.418 1084.35 471.125 1084.03 472.006C1083.72 472.879 1083.56 473.838 1083.56 474.882C1083.56 475.933 1083.72 476.896 1084.03 477.769C1084.35 478.643 1084.84 479.342 1085.49 479.868C1086.15 480.393 1086.98 480.656 1087.99 480.656ZM1099.16 483V466.636H1102.22V469.3H1102.42C1102.76 468.398 1103.32 467.695 1104.09 467.19C1104.87 466.679 1105.79 466.423 1106.87 466.423C1107.97 466.423 1108.88 466.679 1109.62 467.19C1110.37 467.702 1110.92 468.405 1111.27 469.3H1111.44C1111.83 468.426 1112.45 467.73 1113.31 467.212C1114.16 466.686 1115.17 466.423 1116.35 466.423C1117.84 466.423 1119.05 466.888 1119.99 467.819C1120.93 468.749 1121.4 470.152 1121.4 472.027V483H1118.22V472.325C1118.22 471.217 1117.92 470.415 1117.31 469.918C1116.71 469.42 1115.99 469.172 1115.15 469.172C1114.11 469.172 1113.31 469.491 1112.73 470.131C1112.16 470.763 1111.87 471.576 1111.87 472.57V483H1108.69V472.123C1108.69 471.235 1108.42 470.521 1107.86 469.982C1107.31 469.442 1106.59 469.172 1105.7 469.172C1105.1 469.172 1104.54 469.332 1104.03 469.651C1103.52 469.964 1103.11 470.401 1102.8 470.962C1102.5 471.523 1102.34 472.173 1102.34 472.911V483H1099.16Z" fill="black"/>
<line opacity="0.6" x1="658" y1="496" x2="1091" y2="496" stroke="black" stroke-width="2"/>
<line x1="658" y1="400" x2="1091" y2="400" stroke="black" stroke-width="2"/>
<path d="M667.397 362.182H671.392L678.338 379.142H678.594L685.54 362.182H689.535V384H686.403V368.212H686.2L679.766 383.968H677.166L670.732 368.201H670.529V384H667.397V362.182ZM694.065 384V367.636H697.251V384H694.065ZM695.674 365.112C695.12 365.112 694.644 364.927 694.246 364.558C693.856 364.181 693.66 363.734 693.66 363.215C693.66 362.69 693.856 362.242 694.246 361.873C694.644 361.496 695.12 361.308 695.674 361.308C696.228 361.308 696.7 361.496 697.091 361.873C697.488 362.242 697.687 362.69 697.687 363.215C697.687 363.734 697.488 364.181 697.091 364.558C696.7 364.927 696.228 365.112 695.674 365.112ZM708.429 384.33C706.845 384.33 705.481 383.972 704.338 383.254C703.201 382.53 702.328 381.532 701.717 380.261C701.106 378.989 700.801 377.533 700.801 375.893C700.801 374.231 701.113 372.764 701.738 371.493C702.363 370.214 703.244 369.217 704.38 368.499C705.517 367.782 706.855 367.423 708.397 367.423C709.64 367.423 710.748 367.654 711.721 368.116C712.694 368.57 713.478 369.21 714.075 370.033C714.679 370.857 715.037 371.82 715.151 372.92H712.051C711.88 372.153 711.49 371.493 710.879 370.939C710.275 370.385 709.466 370.108 708.45 370.108C707.562 370.108 706.784 370.342 706.117 370.811C705.456 371.273 704.941 371.933 704.572 372.793C704.203 373.645 704.018 374.653 704.018 375.818C704.018 377.011 704.199 378.041 704.561 378.908C704.924 379.774 705.435 380.445 706.096 380.921C706.763 381.397 707.548 381.635 708.45 381.635C709.054 381.635 709.6 381.525 710.091 381.305C710.588 381.077 711.003 380.754 711.337 380.335C711.678 379.916 711.916 379.412 712.051 378.822H715.151C715.037 379.881 714.693 380.825 714.118 381.656C713.542 382.487 712.772 383.141 711.806 383.616C710.847 384.092 709.721 384.33 708.429 384.33ZM721.743 374.284V384H718.557V362.182H721.7V370.3H721.903C722.286 369.419 722.872 368.719 723.66 368.201C724.449 367.683 725.479 367.423 726.75 367.423C727.872 367.423 728.852 367.654 729.69 368.116C730.535 368.577 731.189 369.266 731.65 370.183C732.119 371.092 732.354 372.228 732.354 373.592V384H729.168V373.975C729.168 372.775 728.859 371.844 728.241 371.184C727.623 370.516 726.764 370.183 725.663 370.183C724.91 370.183 724.236 370.342 723.639 370.662C723.05 370.982 722.584 371.45 722.243 372.068C721.91 372.679 721.743 373.418 721.743 374.284ZM741.366 384.362C740.329 384.362 739.392 384.17 738.554 383.787C737.716 383.396 737.052 382.832 736.562 382.093C736.079 381.354 735.837 380.449 735.837 379.376C735.837 378.453 736.015 377.693 736.37 377.097C736.725 376.5 737.204 376.028 737.808 375.68C738.412 375.332 739.086 375.069 739.832 374.891C740.578 374.714 741.338 374.579 742.112 374.487C743.092 374.373 743.888 374.281 744.498 374.21C745.109 374.131 745.553 374.007 745.83 373.837C746.107 373.666 746.246 373.389 746.246 373.006V372.931C746.246 372.001 745.983 371.28 745.457 370.768C744.939 370.257 744.165 370.001 743.135 370.001C742.062 370.001 741.217 370.239 740.599 370.715C739.988 371.184 739.566 371.706 739.331 372.281L736.338 371.599C736.693 370.605 737.211 369.803 737.893 369.192C738.582 368.574 739.374 368.126 740.269 367.849C741.164 367.565 742.105 367.423 743.092 367.423C743.746 367.423 744.438 367.501 745.17 367.658C745.908 367.807 746.597 368.084 747.236 368.489C747.883 368.893 748.412 369.472 748.824 370.225C749.236 370.971 749.442 371.94 749.442 373.134V384H746.331V381.763H746.203C745.997 382.175 745.688 382.58 745.276 382.977C744.864 383.375 744.335 383.705 743.689 383.968C743.042 384.231 742.268 384.362 741.366 384.362ZM742.059 381.805C742.939 381.805 743.692 381.631 744.317 381.283C744.949 380.935 745.429 380.481 745.756 379.92C746.089 379.352 746.256 378.744 746.256 378.098V375.989C746.143 376.102 745.922 376.209 745.596 376.308C745.276 376.401 744.91 376.482 744.498 376.553C744.086 376.617 743.685 376.678 743.295 376.734C742.904 376.784 742.577 376.827 742.314 376.862C741.697 376.94 741.132 377.072 740.621 377.256C740.116 377.441 739.711 377.707 739.406 378.055C739.108 378.396 738.959 378.851 738.959 379.419C738.959 380.207 739.25 380.804 739.832 381.209C740.415 381.607 741.157 381.805 742.059 381.805ZM756.87 362.182V384H753.684V362.182H756.87ZM761.155 384V367.636H764.34V384H761.155ZM762.764 365.112C762.21 365.112 761.734 364.927 761.336 364.558C760.945 364.181 760.75 363.734 760.75 363.215C760.75 362.69 760.945 362.242 761.336 361.873C761.734 361.496 762.21 361.308 762.764 361.308C763.318 361.308 763.79 361.496 764.181 361.873C764.578 362.242 764.777 362.69 764.777 363.215C764.777 363.734 764.578 364.181 764.181 364.558C763.79 364.927 763.318 365.112 762.764 365.112ZM771.811 374.284V384H768.626V367.636H771.683V370.3H771.886C772.262 369.433 772.852 368.737 773.654 368.212C774.464 367.686 775.483 367.423 776.712 367.423C777.827 367.423 778.803 367.658 779.641 368.126C780.479 368.588 781.129 369.277 781.591 370.193C782.053 371.109 782.283 372.242 782.283 373.592V384H779.098V373.975C779.098 372.789 778.789 371.862 778.171 371.195C777.553 370.52 776.705 370.183 775.625 370.183C774.886 370.183 774.229 370.342 773.654 370.662C773.086 370.982 772.635 371.45 772.301 372.068C771.974 372.679 771.811 373.418 771.811 374.284ZM791.317 384.362C790.281 384.362 789.343 384.17 788.505 383.787C787.667 383.396 787.003 382.832 786.513 382.093C786.03 381.354 785.788 380.449 785.788 379.376C785.788 378.453 785.966 377.693 786.321 377.097C786.676 376.5 787.156 376.028 787.759 375.68C788.363 375.332 789.038 375.069 789.783 374.891C790.529 374.714 791.289 374.579 792.063 374.487C793.043 374.373 793.839 374.281 794.45 374.21C795.06 374.131 795.504 374.007 795.781 373.837C796.058 373.666 796.197 373.389 796.197 373.006V372.931C796.197 372.001 795.934 371.28 795.408 370.768C794.89 370.257 794.116 370.001 793.086 370.001C792.013 370.001 791.168 370.239 790.55 370.715C789.94 371.184 789.517 371.706 789.283 372.281L786.289 371.599C786.644 370.605 787.163 369.803 787.844 369.192C788.533 368.574 789.325 368.126 790.22 367.849C791.115 367.565 792.056 367.423 793.043 367.423C793.697 367.423 794.389 367.501 795.121 367.658C795.859 367.807 796.548 368.084 797.188 368.489C797.834 368.893 798.363 369.472 798.775 370.225C799.187 370.971 799.393 371.94 799.393 373.134V384H796.282V381.763H796.154C795.948 382.175 795.639 382.58 795.227 382.977C794.815 383.375 794.286 383.705 793.64 383.968C792.994 384.231 792.219 384.362 791.317 384.362ZM792.01 381.805C792.891 381.805 793.643 381.631 794.268 381.283C794.901 380.935 795.38 380.481 795.707 379.92C796.04 379.352 796.207 378.744 796.207 378.098V375.989C796.094 376.102 795.874 376.209 795.547 376.308C795.227 376.401 794.862 376.482 794.45 376.553C794.038 376.617 793.636 376.678 793.246 376.734C792.855 376.784 792.528 376.827 792.266 376.862C791.648 376.94 791.083 377.072 790.572 377.256C790.067 377.441 789.663 377.707 789.357 378.055C789.059 378.396 788.91 378.851 788.91 379.419C788.91 380.207 789.201 380.804 789.783 381.209C790.366 381.607 791.108 381.805 792.01 381.805ZM830.783 373.091C830.783 375.42 830.357 377.423 829.505 379.099C828.652 380.768 827.484 382.054 826 382.956C824.522 383.851 822.843 384.298 820.961 384.298C819.071 384.298 817.385 383.851 815.9 382.956C814.423 382.054 813.258 380.765 812.406 379.089C811.554 377.413 811.127 375.413 811.127 373.091C811.127 370.761 811.554 368.762 812.406 367.093C813.258 365.417 814.423 364.131 815.9 363.237C817.385 362.335 819.071 361.884 820.961 361.884C822.843 361.884 824.522 362.335 826 363.237C827.484 364.131 828.652 365.417 829.505 367.093C830.357 368.762 830.783 370.761 830.783 373.091ZM827.523 373.091C827.523 371.315 827.235 369.82 826.66 368.606C826.092 367.384 825.311 366.461 824.316 365.836C823.329 365.204 822.211 364.888 820.961 364.888C819.703 364.888 818.581 365.204 817.594 365.836C816.607 366.461 815.826 367.384 815.25 368.606C814.682 369.82 814.398 371.315 814.398 373.091C814.398 374.866 814.682 376.365 815.25 377.587C815.826 378.801 816.607 379.724 817.594 380.357C818.581 380.982 819.703 381.294 820.961 381.294C822.211 381.294 823.329 380.982 824.316 380.357C825.311 379.724 826.092 378.801 826.66 377.587C827.235 376.365 827.523 374.866 827.523 373.091ZM837.817 374.284V384H834.632V367.636H837.689V370.3H837.892C838.268 369.433 838.857 368.737 839.66 368.212C840.47 367.686 841.489 367.423 842.718 367.423C843.833 367.423 844.809 367.658 845.647 368.126C846.485 368.588 847.135 369.277 847.597 370.193C848.058 371.109 848.289 372.242 848.289 373.592V384H845.104V373.975C845.104 372.789 844.795 371.862 844.177 371.195C843.559 370.52 842.71 370.183 841.631 370.183C840.892 370.183 840.235 370.342 839.66 370.662C839.092 370.982 838.641 371.45 838.307 372.068C837.98 372.679 837.817 373.418 837.817 374.284ZM852.561 384V367.636H855.747V384H852.561ZM854.17 365.112C853.616 365.112 853.14 364.927 852.742 364.558C852.352 364.181 852.156 363.734 852.156 363.215C852.156 362.69 852.352 362.242 852.742 361.873C853.14 361.496 853.616 361.308 854.17 361.308C854.724 361.308 855.196 361.496 855.587 361.873C855.985 362.242 856.183 362.69 856.183 363.215C856.183 363.734 855.985 364.181 855.587 364.558C855.196 364.927 854.724 365.112 854.17 365.112ZM872.294 371.631L869.407 372.143C869.286 371.773 869.094 371.422 868.832 371.088C868.576 370.754 868.228 370.481 867.788 370.268C867.347 370.055 866.797 369.948 866.136 369.948C865.234 369.948 864.482 370.151 863.878 370.555C863.274 370.953 862.972 371.468 862.972 372.1C862.972 372.647 863.175 373.087 863.58 373.421C863.984 373.755 864.638 374.028 865.54 374.241L868.139 374.838C869.645 375.186 870.767 375.722 871.506 376.447C872.244 377.171 872.614 378.112 872.614 379.27C872.614 380.25 872.33 381.124 871.761 381.891C871.2 382.651 870.415 383.247 869.407 383.68C868.406 384.114 867.244 384.33 865.923 384.33C864.091 384.33 862.596 383.94 861.438 383.158C860.281 382.37 859.57 381.251 859.308 379.803L862.386 379.334C862.578 380.136 862.972 380.744 863.569 381.156C864.165 381.56 864.943 381.763 865.902 381.763C866.946 381.763 867.781 381.546 868.406 381.113C869.031 380.673 869.343 380.136 869.343 379.504C869.343 378.993 869.151 378.563 868.768 378.215C868.391 377.867 867.812 377.604 867.031 377.427L864.261 376.82C862.734 376.472 861.605 375.918 860.874 375.158C860.149 374.398 859.787 373.435 859.787 372.271C859.787 371.305 860.057 370.46 860.597 369.735C861.136 369.011 861.882 368.446 862.834 368.041C863.786 367.629 864.876 367.423 866.104 367.423C867.873 367.423 869.265 367.807 870.281 368.574C871.296 369.334 871.967 370.353 872.294 371.631ZM875.775 384V381.816L884.639 370.555V370.406H876.063V367.636H888.612V369.959L880.09 381.081V381.23H888.911V384H875.775ZM899.093 384.33C897.509 384.33 896.145 383.972 895.002 383.254C893.865 382.53 892.992 381.532 892.381 380.261C891.77 378.989 891.465 377.533 891.465 375.893C891.465 374.231 891.777 372.764 892.402 371.493C893.027 370.214 893.908 369.217 895.044 368.499C896.181 367.782 897.52 367.423 899.061 367.423C900.304 367.423 901.412 367.654 902.385 368.116C903.358 368.57 904.142 369.21 904.739 370.033C905.343 370.857 905.701 371.82 905.815 372.92H902.715C902.544 372.153 902.154 371.493 901.543 370.939C900.939 370.385 900.13 370.108 899.114 370.108C898.226 370.108 897.449 370.342 896.781 370.811C896.12 371.273 895.605 371.933 895.236 372.793C894.867 373.645 894.682 374.653 894.682 375.818C894.682 377.011 894.863 378.041 895.225 378.908C895.588 379.774 896.099 380.445 896.76 380.921C897.427 381.397 898.212 381.635 899.114 381.635C899.718 381.635 900.265 381.525 900.755 381.305C901.252 381.077 901.667 380.754 902.001 380.335C902.342 379.916 902.58 379.412 902.715 378.822H905.815C905.701 379.881 905.357 380.825 904.782 381.656C904.206 382.487 903.436 383.141 902.47 383.616C901.511 384.092 900.385 384.33 899.093 384.33ZM908.881 384V381.816L917.744 370.555V370.406H909.168V367.636H921.718V369.959L913.195 381.081V381.23H922.016V384H908.881ZM936.14 377.214V367.636H939.336V384H936.204V381.166H936.033C935.657 382.04 935.053 382.768 934.222 383.35C933.398 383.925 932.372 384.213 931.143 384.213C930.092 384.213 929.162 383.982 928.352 383.521C927.55 383.052 926.918 382.359 926.456 381.443C926.001 380.527 925.774 379.394 925.774 378.045V367.636H928.96V377.661C928.96 378.776 929.268 379.664 929.886 380.325C930.504 380.985 931.307 381.315 932.294 381.315C932.891 381.315 933.484 381.166 934.073 380.868C934.67 380.57 935.163 380.119 935.554 379.515C935.952 378.911 936.147 378.144 936.14 377.214ZM946.546 378.45L946.524 374.561H947.078L953.598 367.636H957.412L949.976 375.52H949.475L946.546 378.45ZM943.616 384V362.182H946.801V384H943.616ZM953.95 384L948.09 376.223L950.285 373.996L957.86 384H953.95Z" fill="black"/>
<path d="M928.518 548.277H925.195C925.067 547.567 924.829 546.942 924.481 546.402C924.133 545.862 923.707 545.404 923.202 545.028C922.698 544.651 922.134 544.367 921.509 544.175C920.891 543.984 920.234 543.888 919.538 543.888C918.281 543.888 917.155 544.204 916.161 544.836C915.173 545.468 914.392 546.395 913.817 547.616C913.249 548.838 912.964 550.33 912.964 552.091C912.964 553.866 913.249 555.365 913.817 556.587C914.392 557.808 915.177 558.732 916.171 559.357C917.165 559.982 918.284 560.294 919.527 560.294C920.216 560.294 920.869 560.202 921.487 560.017C922.112 559.825 922.677 559.545 923.181 559.175C923.685 558.806 924.112 558.355 924.46 557.822C924.815 557.283 925.06 556.665 925.195 555.969L928.518 555.979C928.341 557.052 927.996 558.039 927.485 558.941C926.981 559.836 926.331 560.61 925.536 561.263C924.747 561.91 923.845 562.411 922.83 562.766C921.814 563.121 920.706 563.298 919.506 563.298C917.616 563.298 915.933 562.851 914.456 561.956C912.979 561.054 911.814 559.765 910.962 558.089C910.116 556.413 909.694 554.413 909.694 552.091C909.694 549.761 910.12 547.762 910.972 546.093C911.825 544.417 912.989 543.131 914.467 542.237C915.944 541.335 917.624 540.884 919.506 540.884C920.663 540.884 921.743 541.05 922.744 541.384C923.753 541.711 924.658 542.194 925.461 542.833C926.263 543.465 926.928 544.239 927.453 545.156C927.979 546.065 928.334 547.105 928.518 548.277ZM939.095 563.33C937.561 563.33 936.222 562.979 935.078 562.276C933.935 561.572 933.047 560.589 932.415 559.325C931.783 558.06 931.467 556.583 931.467 554.893C931.467 553.195 931.783 551.711 932.415 550.44C933.047 549.168 933.935 548.181 935.078 547.478C936.222 546.775 937.561 546.423 939.095 546.423C940.629 546.423 941.968 546.775 943.111 547.478C944.254 548.181 945.142 549.168 945.774 550.44C946.406 551.711 946.722 553.195 946.722 554.893C946.722 556.583 946.406 558.06 945.774 559.325C945.142 560.589 944.254 561.572 943.111 562.276C941.968 562.979 940.629 563.33 939.095 563.33ZM939.105 560.656C940.1 560.656 940.923 560.393 941.577 559.868C942.23 559.342 942.713 558.643 943.026 557.769C943.345 556.896 943.505 555.933 943.505 554.882C943.505 553.838 943.345 552.879 943.026 552.006C942.713 551.125 942.23 550.418 941.577 549.886C940.923 549.353 940.1 549.087 939.105 549.087C938.104 549.087 937.273 549.353 936.612 549.886C935.959 550.418 935.472 551.125 935.153 552.006C934.84 552.879 934.684 553.838 934.684 554.882C934.684 555.933 934.84 556.896 935.153 557.769C935.472 558.643 935.959 559.342 936.612 559.868C937.273 560.393 938.104 560.656 939.105 560.656ZM950.278 569.136V546.636H953.389V549.289H953.655C953.84 548.948 954.106 548.554 954.454 548.107C954.802 547.659 955.285 547.268 955.903 546.935C956.521 546.594 957.338 546.423 958.353 546.423C959.674 546.423 960.853 546.757 961.89 547.425C962.927 548.092 963.74 549.055 964.33 550.312C964.926 551.569 965.225 553.082 965.225 554.85C965.225 556.619 964.93 558.135 964.341 559.399C963.751 560.656 962.941 561.626 961.912 562.308C960.882 562.982 959.706 563.32 958.385 563.32C957.391 563.32 956.578 563.153 955.946 562.819C955.321 562.485 954.831 562.094 954.475 561.647C954.12 561.2 953.847 560.802 953.655 560.454H953.463V569.136H950.278ZM953.4 554.818C953.4 555.969 953.566 556.977 953.9 557.844C954.234 558.71 954.717 559.388 955.349 559.879C955.981 560.362 956.755 560.603 957.672 560.603C958.623 560.603 959.419 560.351 960.058 559.847C960.697 559.335 961.18 558.643 961.507 557.769C961.841 556.896 962.007 555.912 962.007 554.818C962.007 553.739 961.844 552.769 961.517 551.91C961.198 551.05 960.715 550.372 960.069 549.875C959.429 549.378 958.63 549.129 957.672 549.129C956.748 549.129 955.967 549.367 955.328 549.843C954.696 550.319 954.216 550.983 953.89 551.835C953.563 552.687 953.4 553.682 953.4 554.818ZM975.846 563.33C974.234 563.33 972.846 562.986 971.681 562.297C970.523 561.601 969.628 560.624 968.996 559.367C968.371 558.103 968.059 556.622 968.059 554.925C968.059 553.249 968.371 551.771 968.996 550.493C969.628 549.214 970.509 548.217 971.638 547.499C972.775 546.782 974.103 546.423 975.623 546.423C976.546 546.423 977.441 546.576 978.307 546.881C979.174 547.187 979.951 547.666 980.64 548.32C981.329 548.973 981.873 549.822 982.27 550.866C982.668 551.903 982.867 553.163 982.867 554.648V555.777H969.859V553.391H979.745C979.745 552.553 979.575 551.81 979.234 551.164C978.893 550.511 978.414 549.996 977.796 549.619C977.185 549.243 976.468 549.055 975.644 549.055C974.749 549.055 973.968 549.275 973.3 549.715C972.64 550.148 972.128 550.717 971.766 551.42C971.411 552.116 971.233 552.872 971.233 553.689V555.553C971.233 556.647 971.425 557.577 971.809 558.344C972.199 559.112 972.743 559.697 973.439 560.102C974.135 560.5 974.948 560.699 975.878 560.699C976.482 560.699 977.032 560.614 977.529 560.443C978.027 560.266 978.456 560.003 978.819 559.655C979.181 559.307 979.458 558.877 979.65 558.366L982.664 558.909C982.423 559.797 981.99 560.575 981.365 561.242C980.747 561.903 979.969 562.418 979.032 562.787C978.101 563.149 977.039 563.33 975.846 563.33ZM989.586 553.284V563H986.401V546.636H989.459V549.3H989.661C990.037 548.433 990.627 547.737 991.43 547.212C992.239 546.686 993.258 546.423 994.487 546.423C995.602 546.423 996.579 546.658 997.417 547.126C998.255 547.588 998.905 548.277 999.366 549.193C999.828 550.109 1000.06 551.242 1000.06 552.592V563H996.873V552.975C996.873 551.789 996.564 550.862 995.947 550.195C995.329 549.52 994.48 549.183 993.4 549.183C992.662 549.183 992.005 549.342 991.43 549.662C990.861 549.982 990.41 550.45 990.077 551.068C989.75 551.679 989.586 552.418 989.586 553.284ZM1007.52 553.284V563H1004.33V541.182H1007.47V549.3H1007.68C1008.06 548.419 1008.65 547.719 1009.43 547.201C1010.22 546.683 1011.25 546.423 1012.52 546.423C1013.65 546.423 1014.63 546.654 1015.46 547.116C1016.31 547.577 1016.96 548.266 1017.42 549.183C1017.89 550.092 1018.13 551.228 1018.13 552.592V563H1014.94V552.975C1014.94 551.775 1014.63 550.844 1014.01 550.184C1013.4 549.516 1012.54 549.183 1011.44 549.183C1010.68 549.183 1010.01 549.342 1009.41 549.662C1008.82 549.982 1008.36 550.45 1008.02 551.068C1007.68 551.679 1007.52 552.418 1007.52 553.284ZM1027.14 563.362C1026.1 563.362 1025.17 563.17 1024.33 562.787C1023.49 562.396 1022.83 561.832 1022.34 561.093C1021.85 560.354 1021.61 559.449 1021.61 558.376C1021.61 557.453 1021.79 556.693 1022.14 556.097C1022.5 555.5 1022.98 555.028 1023.58 554.68C1024.19 554.332 1024.86 554.069 1025.61 553.891C1026.35 553.714 1027.11 553.579 1027.89 553.487C1028.87 553.373 1029.66 553.281 1030.27 553.21C1030.88 553.131 1031.33 553.007 1031.6 552.837C1031.88 552.666 1032.02 552.389 1032.02 552.006V551.931C1032.02 551.001 1031.76 550.28 1031.23 549.768C1030.71 549.257 1029.94 549.001 1028.91 549.001C1027.84 549.001 1026.99 549.239 1026.37 549.715C1025.76 550.184 1025.34 550.706 1025.1 551.281L1022.11 550.599C1022.47 549.605 1022.98 548.803 1023.67 548.192C1024.36 547.574 1025.15 547.126 1026.04 546.849C1026.94 546.565 1027.88 546.423 1028.87 546.423C1029.52 546.423 1030.21 546.501 1030.94 546.658C1031.68 546.807 1032.37 547.084 1033.01 547.489C1033.66 547.893 1034.19 548.472 1034.6 549.225C1035.01 549.971 1035.22 550.94 1035.22 552.134V563H1032.1V560.763H1031.98C1031.77 561.175 1031.46 561.58 1031.05 561.977C1030.64 562.375 1030.11 562.705 1029.46 562.968C1028.82 563.231 1028.04 563.362 1027.14 563.362ZM1027.83 560.805C1028.71 560.805 1029.47 560.631 1030.09 560.283C1030.72 559.935 1031.2 559.481 1031.53 558.92C1031.86 558.352 1032.03 557.744 1032.03 557.098V554.989C1031.92 555.102 1031.7 555.209 1031.37 555.308C1031.05 555.401 1030.68 555.482 1030.27 555.553C1029.86 555.617 1029.46 555.678 1029.07 555.734C1028.68 555.784 1028.35 555.827 1028.09 555.862C1027.47 555.94 1026.91 556.072 1026.39 556.256C1025.89 556.441 1025.48 556.707 1025.18 557.055C1024.88 557.396 1024.73 557.851 1024.73 558.419C1024.73 559.207 1025.02 559.804 1025.61 560.209C1026.19 560.607 1026.93 560.805 1027.83 560.805ZM1046.32 569.477C1045.02 569.477 1043.9 569.307 1042.96 568.966C1042.03 568.625 1041.27 568.174 1040.68 567.613C1040.09 567.052 1039.65 566.438 1039.36 565.77L1042.1 564.641C1042.29 564.953 1042.55 565.283 1042.87 565.631C1043.19 565.987 1043.63 566.288 1044.19 566.537C1044.75 566.786 1045.47 566.91 1046.35 566.91C1047.56 566.91 1048.56 566.615 1049.34 566.026C1050.13 565.443 1050.53 564.513 1050.53 563.234V560.017H1050.32C1050.13 560.365 1049.86 560.752 1049.49 561.178C1049.14 561.604 1048.65 561.974 1048.02 562.286C1047.4 562.599 1046.58 562.755 1045.58 562.755C1044.29 562.755 1043.13 562.453 1042.09 561.849C1041.06 561.239 1040.24 560.34 1039.64 559.154C1039.04 557.961 1038.74 556.494 1038.74 554.754C1038.74 553.014 1039.04 551.523 1039.63 550.28C1040.22 549.037 1041.04 548.085 1042.08 547.425C1043.12 546.757 1044.29 546.423 1045.6 546.423C1046.62 546.423 1047.44 546.594 1048.07 546.935C1048.69 547.268 1049.18 547.659 1049.53 548.107C1049.88 548.554 1050.15 548.948 1050.35 549.289H1050.58V546.636H1053.7V563.362C1053.7 564.768 1053.37 565.923 1052.72 566.825C1052.07 567.727 1051.18 568.394 1050.07 568.827C1048.96 569.261 1047.71 569.477 1046.32 569.477ZM1046.29 560.113C1047.2 560.113 1047.98 559.9 1048.61 559.474C1049.25 559.04 1049.73 558.423 1050.06 557.62C1050.39 556.81 1050.56 555.841 1050.56 554.712C1050.56 553.611 1050.4 552.641 1050.07 551.803C1049.74 550.965 1049.26 550.312 1048.63 549.843C1048 549.367 1047.22 549.129 1046.29 549.129C1045.33 549.129 1044.53 549.378 1043.89 549.875C1043.25 550.365 1042.77 551.033 1042.44 551.878C1042.12 552.723 1041.96 553.668 1041.96 554.712C1041.96 555.784 1042.12 556.725 1042.45 557.535C1042.78 558.344 1043.26 558.977 1043.9 559.431C1044.55 559.886 1045.34 560.113 1046.29 560.113ZM1065.03 563.33C1063.41 563.33 1062.03 562.986 1060.86 562.297C1059.7 561.601 1058.81 560.624 1058.18 559.367C1057.55 558.103 1057.24 556.622 1057.24 554.925C1057.24 553.249 1057.55 551.771 1058.18 550.493C1058.81 549.214 1059.69 548.217 1060.82 547.499C1061.95 546.782 1063.28 546.423 1064.8 546.423C1065.73 546.423 1066.62 546.576 1067.49 546.881C1068.35 547.187 1069.13 547.666 1069.82 548.32C1070.51 548.973 1071.05 549.822 1071.45 550.866C1071.85 551.903 1072.05 553.163 1072.05 554.648V555.777H1059.04V553.391H1068.93C1068.93 552.553 1068.75 551.81 1068.41 551.164C1068.07 550.511 1067.59 549.996 1066.98 549.619C1066.36 549.243 1065.65 549.055 1064.82 549.055C1063.93 549.055 1063.15 549.275 1062.48 549.715C1061.82 550.148 1061.31 550.717 1060.95 551.42C1060.59 552.116 1060.41 552.872 1060.41 553.689V555.553C1060.41 556.647 1060.6 557.577 1060.99 558.344C1061.38 559.112 1061.92 559.697 1062.62 560.102C1063.31 560.5 1064.13 560.699 1065.06 560.699C1065.66 560.699 1066.21 560.614 1066.71 560.443C1067.21 560.266 1067.64 560.003 1068 559.655C1068.36 559.307 1068.64 558.877 1068.83 558.366L1071.84 558.909C1071.6 559.797 1071.17 560.575 1070.54 561.242C1069.93 561.903 1069.15 562.418 1068.21 562.787C1067.28 563.149 1066.22 563.33 1065.03 563.33ZM1078.77 553.284V563H1075.58V546.636H1078.64V549.3H1078.84C1079.22 548.433 1079.81 547.737 1080.61 547.212C1081.42 546.686 1082.44 546.423 1083.67 546.423C1084.78 546.423 1085.76 546.658 1086.6 547.126C1087.43 547.588 1088.08 548.277 1088.55 549.193C1089.01 550.109 1089.24 551.242 1089.24 552.592V563H1086.05V552.975C1086.05 551.789 1085.74 550.862 1085.13 550.195C1084.51 549.52 1083.66 549.183 1082.58 549.183C1081.84 549.183 1081.18 549.342 1080.61 549.662C1080.04 549.982 1079.59 550.45 1079.26 551.068C1078.93 551.679 1078.77 552.418 1078.77 553.284Z" fill="black"/>
<rect x="968" y="66" width="105" height="113" fill="#743362" fill-opacity="0.9"/>
<rect x="658.5" y="534.5" width="34" height="39" stroke="black"/>
<rect x="693.5" y="534.5" width="34" height="39" stroke="black"/>
<rect x="842.5" y="534.5" width="34" height="39" stroke="black"/>
<rect x="771.5" y="534.5" width="36" height="39" stroke="black"/>
<rect x="808.5" y="534.5" width="33" height="39" stroke="black"/>
<line x1="738" y1="553.5" x2="764" y2="553.5" stroke="black"/>
<line x1="1156.5" y1="670.001" x2="1156.5" y2="1.00024" stroke="black"/>
<line x1="1142.63" y1="16.4053" x2="1156.15" y2="1.66222" stroke="black"/>
<line x1="1142.63" y1="684.662" x2="1156.15" y2="669.919" stroke="black"/>
<line x1="0.631423" y1="16.4053" x2="14.1459" y2="1.66222" stroke="black"/>
<line x1="15" y1="0.5" x2="1157" y2="0.5" stroke="black"/>
<path d="M82.397 384V362.182H95.9268V365.016H85.6889V371.663H94.9574V374.487H85.6889V384H82.397ZM105.571 384.33C103.959 384.33 102.57 383.986 101.405 383.297C100.248 382.601 99.3528 381.624 98.7207 380.367C98.0957 379.103 97.7832 377.622 97.7832 375.925C97.7832 374.249 98.0957 372.771 98.7207 371.493C99.3528 370.214 100.233 369.217 101.363 368.499C102.499 367.782 103.827 367.423 105.347 367.423C106.27 367.423 107.165 367.576 108.032 367.881C108.898 368.187 109.676 368.666 110.365 369.32C111.054 369.973 111.597 370.822 111.995 371.866C112.393 372.903 112.591 374.163 112.591 375.648V376.777H99.5836V374.391H109.47C109.47 373.553 109.3 372.81 108.959 372.164C108.618 371.511 108.138 370.996 107.52 370.619C106.91 370.243 106.192 370.055 105.368 370.055C104.474 370.055 103.692 370.275 103.025 370.715C102.364 371.148 101.853 371.717 101.491 372.42C101.135 373.116 100.958 373.872 100.958 374.689V376.553C100.958 377.647 101.15 378.577 101.533 379.344C101.924 380.112 102.467 380.697 103.163 381.102C103.859 381.5 104.672 381.699 105.603 381.699C106.206 381.699 106.757 381.614 107.254 381.443C107.751 381.266 108.181 381.003 108.543 380.655C108.905 380.307 109.182 379.877 109.374 379.366L112.389 379.909C112.148 380.797 111.714 381.575 111.089 382.242C110.471 382.903 109.694 383.418 108.756 383.787C107.826 384.149 106.764 384.33 105.571 384.33ZM123.178 384.33C121.566 384.33 120.178 383.986 119.013 383.297C117.855 382.601 116.96 381.624 116.328 380.367C115.703 379.103 115.391 377.622 115.391 375.925C115.391 374.249 115.703 372.771 116.328 371.493C116.96 370.214 117.841 369.217 118.97 368.499C120.107 367.782 121.435 367.423 122.955 367.423C123.878 367.423 124.773 367.576 125.639 367.881C126.506 368.187 127.283 368.666 127.972 369.32C128.661 369.973 129.205 370.822 129.602 371.866C130 372.903 130.199 374.163 130.199 375.648V376.777H117.191V374.391H127.077C127.077 373.553 126.907 372.81 126.566 372.164C126.225 371.511 125.746 370.996 125.128 370.619C124.517 370.243 123.8 370.055 122.976 370.055C122.081 370.055 121.3 370.275 120.632 370.715C119.972 371.148 119.46 371.717 119.098 372.42C118.743 373.116 118.565 373.872 118.565 374.689V376.553C118.565 377.647 118.757 378.577 119.141 379.344C119.531 380.112 120.075 380.697 120.771 381.102C121.467 381.5 122.28 381.699 123.21 381.699C123.814 381.699 124.364 381.614 124.862 381.443C125.359 381.266 125.788 381.003 126.151 380.655C126.513 380.307 126.79 379.877 126.982 379.366L129.996 379.909C129.755 380.797 129.322 381.575 128.697 382.242C128.079 382.903 127.301 383.418 126.364 383.787C125.433 384.149 124.371 384.33 123.178 384.33ZM136.919 362.182V384H133.733V362.182H136.919ZM156.931 367.636V370.193H147.684V367.636H156.931ZM150.219 384V365.74C150.219 364.717 150.443 363.869 150.89 363.194C151.338 362.512 151.931 362.004 152.67 361.67C153.408 361.33 154.211 361.159 155.077 361.159C155.716 361.159 156.263 361.212 156.718 361.319C157.172 361.418 157.51 361.511 157.73 361.596L156.984 364.174C156.835 364.131 156.643 364.082 156.409 364.025C156.175 363.961 155.89 363.929 155.557 363.929C154.782 363.929 154.229 364.121 153.895 364.504C153.568 364.888 153.405 365.442 153.405 366.166V384H150.219ZM160.218 384V367.636H163.296V370.236H163.467C163.765 369.355 164.291 368.663 165.044 368.158C165.803 367.647 166.663 367.391 167.622 367.391C167.82 367.391 168.055 367.398 168.325 367.413C168.602 367.427 168.818 367.445 168.975 367.466V370.513C168.847 370.477 168.619 370.438 168.293 370.396C167.966 370.346 167.639 370.321 167.313 370.321C166.56 370.321 165.889 370.481 165.299 370.8C164.717 371.113 164.255 371.55 163.914 372.111C163.573 372.665 163.403 373.297 163.403 374.007V384H160.218ZM178.198 384.33C176.586 384.33 175.197 383.986 174.032 383.297C172.875 382.601 171.98 381.624 171.348 380.367C170.723 379.103 170.41 377.622 170.41 375.925C170.41 374.249 170.723 372.771 171.348 371.493C171.98 370.214 172.86 369.217 173.99 368.499C175.126 367.782 176.454 367.423 177.974 367.423C178.897 367.423 179.792 367.576 180.659 367.881C181.525 368.187 182.303 368.666 182.992 369.32C183.681 369.973 184.224 370.822 184.622 371.866C185.02 372.903 185.218 374.163 185.218 375.648V376.777H172.211V374.391H182.097C182.097 373.553 181.926 372.81 181.586 372.164C181.245 371.511 180.765 370.996 180.147 370.619C179.537 370.243 178.819 370.055 177.995 370.055C177.1 370.055 176.319 370.275 175.652 370.715C174.991 371.148 174.48 371.717 174.118 372.42C173.762 373.116 173.585 373.872 173.585 374.689V376.553C173.585 377.647 173.777 378.577 174.16 379.344C174.551 380.112 175.094 380.697 175.79 381.102C176.486 381.5 177.299 381.699 178.23 381.699C178.833 381.699 179.384 381.614 179.881 381.443C180.378 381.266 180.808 381.003 181.17 380.655C181.532 380.307 181.809 379.877 182.001 379.366L185.016 379.909C184.775 380.797 184.341 381.575 183.716 382.242C183.098 382.903 182.321 383.418 181.383 383.787C180.453 384.149 179.391 384.33 178.198 384.33ZM195.805 384.33C194.193 384.33 192.805 383.986 191.64 383.297C190.482 382.601 189.587 381.624 188.955 380.367C188.33 379.103 188.018 377.622 188.018 375.925C188.018 374.249 188.33 372.771 188.955 371.493C189.587 370.214 190.468 369.217 191.597 368.499C192.733 367.782 194.062 367.423 195.581 367.423C196.505 367.423 197.4 367.576 198.266 367.881C199.133 368.187 199.91 368.666 200.599 369.32C201.288 369.973 201.831 370.822 202.229 371.866C202.627 372.903 202.826 374.163 202.826 375.648V376.777H189.818V374.391H199.704C199.704 373.553 199.534 372.81 199.193 372.164C198.852 371.511 198.373 370.996 197.755 370.619C197.144 370.243 196.427 370.055 195.603 370.055C194.708 370.055 193.927 370.275 193.259 370.715C192.599 371.148 192.087 371.717 191.725 372.42C191.37 373.116 191.192 373.872 191.192 374.689V376.553C191.192 377.647 191.384 378.577 191.768 379.344C192.158 380.112 192.702 380.697 193.398 381.102C194.094 381.5 194.907 381.699 195.837 381.699C196.441 381.699 196.991 381.614 197.488 381.443C197.986 381.266 198.415 381.003 198.778 380.655C199.14 380.307 199.417 379.877 199.608 379.366L202.623 379.909C202.382 380.797 201.949 381.575 201.324 382.242C200.706 382.903 199.928 383.418 198.991 383.787C198.06 384.149 196.998 384.33 195.805 384.33ZM221.938 367.636V370.193H213V367.636H221.938ZM215.397 363.716H218.582V379.195C218.582 379.813 218.675 380.278 218.859 380.591C219.044 380.896 219.282 381.106 219.573 381.219C219.871 381.326 220.194 381.379 220.542 381.379C220.798 381.379 221.022 381.362 221.214 381.326C221.405 381.29 221.555 381.262 221.661 381.241L222.236 383.872C222.052 383.943 221.789 384.014 221.448 384.085C221.107 384.163 220.681 384.206 220.17 384.213C219.331 384.227 218.55 384.078 217.826 383.766C217.101 383.453 216.515 382.97 216.068 382.317C215.621 381.663 215.397 380.843 215.397 379.856V363.716ZM232.179 384.33C230.645 384.33 229.306 383.979 228.162 383.276C227.019 382.572 226.131 381.589 225.499 380.325C224.867 379.06 224.551 377.583 224.551 375.893C224.551 374.195 224.867 372.711 225.499 371.44C226.131 370.168 227.019 369.181 228.162 368.478C229.306 367.775 230.645 367.423 232.179 367.423C233.713 367.423 235.051 367.775 236.195 368.478C237.338 369.181 238.226 370.168 238.858 371.44C239.49 372.711 239.806 374.195 239.806 375.893C239.806 377.583 239.49 379.06 238.858 380.325C238.226 381.589 237.338 382.572 236.195 383.276C235.051 383.979 233.713 384.33 232.179 384.33ZM232.189 381.656C233.184 381.656 234.007 381.393 234.661 380.868C235.314 380.342 235.797 379.643 236.11 378.769C236.429 377.896 236.589 376.933 236.589 375.882C236.589 374.838 236.429 373.879 236.11 373.006C235.797 372.125 235.314 371.418 234.661 370.886C234.007 370.353 233.184 370.087 232.189 370.087C231.188 370.087 230.357 370.353 229.696 370.886C229.043 371.418 228.556 372.125 228.237 373.006C227.924 373.879 227.768 374.838 227.768 375.882C227.768 376.933 227.924 377.896 228.237 378.769C228.556 379.643 229.043 380.342 229.696 380.868C230.357 381.393 231.188 381.656 232.189 381.656ZM251.301 384V367.636H254.38V370.236H254.551C254.849 369.355 255.375 368.663 256.127 368.158C256.887 367.647 257.747 367.391 258.706 367.391C258.904 367.391 259.139 367.398 259.409 367.413C259.686 367.427 259.902 367.445 260.059 367.466V370.513C259.931 370.477 259.703 370.438 259.377 370.396C259.05 370.346 258.723 370.321 258.397 370.321C257.644 370.321 256.973 370.481 256.383 370.8C255.801 371.113 255.339 371.55 254.998 372.111C254.657 372.665 254.487 373.297 254.487 374.007V384H251.301ZM269.282 384.33C267.67 384.33 266.281 383.986 265.116 383.297C263.959 382.601 263.064 381.624 262.432 380.367C261.807 379.103 261.494 377.622 261.494 375.925C261.494 374.249 261.807 372.771 262.432 371.493C263.064 370.214 263.944 369.217 265.074 368.499C266.21 367.782 267.538 367.423 269.058 367.423C269.981 367.423 270.876 367.576 271.743 367.881C272.609 368.187 273.387 368.666 274.076 369.32C274.765 369.973 275.308 370.822 275.706 371.866C276.104 372.903 276.302 374.163 276.302 375.648V376.777H263.295V374.391H273.181C273.181 373.553 273.01 372.81 272.67 372.164C272.329 371.511 271.849 370.996 271.231 370.619C270.621 370.243 269.903 370.055 269.079 370.055C268.184 370.055 267.403 370.275 266.736 370.715C266.075 371.148 265.564 371.717 265.202 372.42C264.846 373.116 264.669 373.872 264.669 374.689V376.553C264.669 377.647 264.861 378.577 265.244 379.344C265.635 380.112 266.178 380.697 266.874 381.102C267.57 381.5 268.383 381.699 269.314 381.699C269.917 381.699 270.468 381.614 270.965 381.443C271.462 381.266 271.892 381.003 272.254 380.655C272.616 380.307 272.893 379.877 273.085 379.366L276.1 379.909C275.858 380.797 275.425 381.575 274.8 382.242C274.182 382.903 273.405 383.418 272.467 383.787C271.537 384.149 270.475 384.33 269.282 384.33ZM284.599 384.362C283.562 384.362 282.624 384.17 281.786 383.787C280.948 383.396 280.284 382.832 279.794 382.093C279.311 381.354 279.07 380.449 279.07 379.376C279.07 378.453 279.247 377.693 279.602 377.097C279.957 376.5 280.437 376.028 281.04 375.68C281.644 375.332 282.319 375.069 283.065 374.891C283.81 374.714 284.57 374.579 285.344 374.487C286.325 374.373 287.12 374.281 287.731 374.21C288.342 374.131 288.786 374.007 289.062 373.837C289.339 373.666 289.478 373.389 289.478 373.006V372.931C289.478 372.001 289.215 371.28 288.69 370.768C288.171 370.257 287.397 370.001 286.367 370.001C285.295 370.001 284.45 370.239 283.832 370.715C283.221 371.184 282.798 371.706 282.564 372.281L279.57 371.599C279.925 370.605 280.444 369.803 281.126 369.192C281.815 368.574 282.607 368.126 283.501 367.849C284.396 367.565 285.337 367.423 286.325 367.423C286.978 367.423 287.67 367.501 288.402 367.658C289.141 367.807 289.83 368.084 290.469 368.489C291.115 368.893 291.644 369.472 292.056 370.225C292.468 370.971 292.674 371.94 292.674 373.134V384H289.563V381.763H289.435C289.229 382.175 288.92 382.58 288.509 382.977C288.097 383.375 287.567 383.705 286.921 383.968C286.275 384.231 285.501 384.362 284.599 384.362ZM285.291 381.805C286.172 381.805 286.925 381.631 287.55 381.283C288.182 380.935 288.661 380.481 288.988 379.92C289.322 379.352 289.489 378.744 289.489 378.098V375.989C289.375 376.102 289.155 376.209 288.828 376.308C288.509 376.401 288.143 376.482 287.731 376.553C287.319 376.617 286.918 376.678 286.527 376.734C286.136 376.784 285.81 376.827 285.547 376.862C284.929 376.94 284.364 377.072 283.853 377.256C283.349 377.441 282.944 377.707 282.638 378.055C282.34 378.396 282.191 378.851 282.191 379.419C282.191 380.207 282.482 380.804 283.065 381.209C283.647 381.607 284.389 381.805 285.291 381.805ZM303.809 384.33C302.226 384.33 300.862 383.972 299.719 383.254C298.582 382.53 297.709 381.532 297.098 380.261C296.487 378.989 296.182 377.533 296.182 375.893C296.182 374.231 296.494 372.764 297.119 371.493C297.744 370.214 298.625 369.217 299.761 368.499C300.898 367.782 302.236 367.423 303.778 367.423C305.02 367.423 306.128 367.654 307.101 368.116C308.074 368.57 308.859 369.21 309.456 370.033C310.059 370.857 310.418 371.82 310.532 372.92H307.432C307.261 372.153 306.871 371.493 306.26 370.939C305.656 370.385 304.846 370.108 303.831 370.108C302.943 370.108 302.165 370.342 301.498 370.811C300.837 371.273 300.322 371.933 299.953 372.793C299.584 373.645 299.399 374.653 299.399 375.818C299.399 377.011 299.58 378.041 299.942 378.908C300.305 379.774 300.816 380.445 301.476 380.921C302.144 381.397 302.929 381.635 303.831 381.635C304.434 381.635 304.981 381.525 305.471 381.305C305.969 381.077 306.384 380.754 306.718 380.335C307.059 379.916 307.297 379.412 307.432 378.822H310.532C310.418 379.881 310.074 380.825 309.498 381.656C308.923 382.487 308.153 383.141 307.187 383.616C306.228 384.092 305.102 384.33 303.809 384.33ZM317.124 374.284V384H313.938V362.182H317.081V370.3H317.283C317.667 369.419 318.253 368.719 319.041 368.201C319.83 367.683 320.859 367.423 322.131 367.423C323.253 367.423 324.233 367.654 325.071 368.116C325.916 368.577 326.57 369.266 327.031 370.183C327.5 371.092 327.734 372.228 327.734 373.592V384H324.549V373.975C324.549 372.775 324.24 371.844 323.622 371.184C323.004 370.516 322.145 370.183 321.044 370.183C320.291 370.183 319.616 370.342 319.02 370.662C318.43 370.982 317.965 371.45 317.624 372.068C317.29 372.679 317.124 373.418 317.124 374.284ZM346.817 384.33C345.283 384.33 343.944 383.979 342.801 383.276C341.657 382.572 340.77 381.589 340.138 380.325C339.506 379.06 339.189 377.583 339.189 375.893C339.189 374.195 339.506 372.711 340.138 371.44C340.77 370.168 341.657 369.181 342.801 368.478C343.944 367.775 345.283 367.423 346.817 367.423C348.351 367.423 349.69 367.775 350.834 368.478C351.977 369.181 352.865 370.168 353.497 371.44C354.129 372.711 354.445 374.195 354.445 375.893C354.445 377.583 354.129 379.06 353.497 380.325C352.865 381.589 351.977 382.572 350.834 383.276C349.69 383.979 348.351 384.33 346.817 384.33ZM346.828 381.656C347.822 381.656 348.646 381.393 349.3 380.868C349.953 380.342 350.436 379.643 350.748 378.769C351.068 377.896 351.228 376.933 351.228 375.882C351.228 374.838 351.068 373.879 350.748 373.006C350.436 372.125 349.953 371.418 349.3 370.886C348.646 370.353 347.822 370.087 346.828 370.087C345.827 370.087 344.996 370.353 344.335 370.886C343.682 371.418 343.195 372.125 342.876 373.006C342.563 373.879 342.407 374.838 342.407 375.882C342.407 376.933 342.563 377.896 342.876 378.769C343.195 379.643 343.682 380.342 344.335 380.868C344.996 381.393 345.827 381.656 346.828 381.656ZM368.366 377.214V367.636H371.562V384H368.43V381.166H368.26C367.884 382.04 367.28 382.768 366.449 383.35C365.625 383.925 364.599 384.213 363.37 384.213C362.319 384.213 361.388 383.982 360.579 383.521C359.776 383.052 359.144 382.359 358.683 381.443C358.228 380.527 358.001 379.394 358.001 378.045V367.636H361.186V377.661C361.186 378.776 361.495 379.664 362.113 380.325C362.731 380.985 363.533 381.315 364.521 381.315C365.117 381.315 365.71 381.166 366.3 380.868C366.896 380.57 367.39 380.119 367.781 379.515C368.178 378.911 368.374 378.144 368.366 377.214ZM383.481 367.636V370.193H374.543V367.636H383.481ZM376.94 363.716H380.125V379.195C380.125 379.813 380.218 380.278 380.402 380.591C380.587 380.896 380.825 381.106 381.116 381.219C381.414 381.326 381.737 381.379 382.085 381.379C382.341 381.379 382.565 381.362 382.757 381.326C382.948 381.29 383.097 381.262 383.204 381.241L383.779 383.872C383.595 383.943 383.332 384.014 382.991 384.085C382.65 384.163 382.224 384.206 381.713 384.213C380.874 384.227 380.093 384.078 379.369 383.766C378.644 383.453 378.058 382.97 377.611 382.317C377.164 381.663 376.94 380.843 376.94 379.856V363.716ZM402.583 367.636V370.193H393.644V367.636H402.583ZM396.041 363.716H399.227V379.195C399.227 379.813 399.319 380.278 399.504 380.591C399.688 380.896 399.926 381.106 400.218 381.219C400.516 381.326 400.839 381.379 401.187 381.379C401.443 381.379 401.666 381.362 401.858 381.326C402.05 381.29 402.199 381.262 402.306 381.241L402.881 383.872C402.696 383.943 402.433 384.014 402.093 384.085C401.752 384.163 401.325 384.206 400.814 384.213C399.976 384.227 399.195 384.078 398.47 383.766C397.746 383.453 397.16 382.97 396.713 382.317C396.265 381.663 396.041 380.843 396.041 379.856V363.716ZM412.823 384.33C411.289 384.33 409.95 383.979 408.807 383.276C407.663 382.572 406.776 381.589 406.143 380.325C405.511 379.06 405.195 377.583 405.195 375.893C405.195 374.195 405.511 372.711 406.143 371.44C406.776 370.168 407.663 369.181 408.807 368.478C409.95 367.775 411.289 367.423 412.823 367.423C414.357 367.423 415.696 367.775 416.839 368.478C417.983 369.181 418.871 370.168 419.503 371.44C420.135 372.711 420.451 374.195 420.451 375.893C420.451 377.583 420.135 379.06 419.503 380.325C418.871 381.589 417.983 382.572 416.839 383.276C415.696 383.979 414.357 384.33 412.823 384.33ZM412.834 381.656C413.828 381.656 414.652 381.393 415.305 380.868C415.959 380.342 416.442 379.643 416.754 378.769C417.074 377.896 417.234 376.933 417.234 375.882C417.234 374.838 417.074 373.879 416.754 373.006C416.442 372.125 415.959 371.418 415.305 370.886C414.652 370.353 413.828 370.087 412.834 370.087C411.832 370.087 411.001 370.353 410.341 370.886C409.688 371.418 409.201 372.125 408.881 373.006C408.569 373.879 408.413 374.838 408.413 375.882C408.413 376.933 408.569 377.896 408.881 378.769C409.201 379.643 409.688 380.342 410.341 380.868C411.001 381.393 411.832 381.656 412.834 381.656ZM431.946 384V367.636H435.004V370.3H435.206C435.547 369.398 436.104 368.695 436.879 368.19C437.653 367.679 438.58 367.423 439.659 367.423C440.753 367.423 441.669 367.679 442.408 368.19C443.153 368.702 443.704 369.405 444.059 370.3H444.229C444.62 369.426 445.241 368.73 446.094 368.212C446.946 367.686 447.962 367.423 449.141 367.423C450.625 367.423 451.836 367.888 452.773 368.819C453.718 369.749 454.19 371.152 454.19 373.027V384H451.005V373.325C451.005 372.217 450.703 371.415 450.099 370.918C449.496 370.42 448.775 370.172 447.937 370.172C446.9 370.172 446.094 370.491 445.518 371.131C444.943 371.763 444.656 372.576 444.656 373.57V384H441.481V373.123C441.481 372.235 441.204 371.521 440.65 370.982C440.096 370.442 439.375 370.172 438.487 370.172C437.884 370.172 437.326 370.332 436.815 370.651C436.31 370.964 435.902 371.401 435.589 371.962C435.284 372.523 435.131 373.173 435.131 373.911V384H431.946ZM465.512 384.33C463.9 384.33 462.512 383.986 461.347 383.297C460.189 382.601 459.294 381.624 458.662 380.367C458.037 379.103 457.725 377.622 457.725 375.925C457.725 374.249 458.037 372.771 458.662 371.493C459.294 370.214 460.175 369.217 461.304 368.499C462.441 367.782 463.769 367.423 465.289 367.423C466.212 367.423 467.107 367.576 467.973 367.881C468.84 368.187 469.617 368.666 470.306 369.32C470.995 369.973 471.539 370.822 471.936 371.866C472.334 372.903 472.533 374.163 472.533 375.648V376.777H459.525V374.391H469.411C469.411 373.553 469.241 372.81 468.9 372.164C468.559 371.511 468.08 370.996 467.462 370.619C466.851 370.243 466.134 370.055 465.31 370.055C464.415 370.055 463.634 370.275 462.966 370.715C462.306 371.148 461.794 371.717 461.432 372.42C461.077 373.116 460.899 373.872 460.899 374.689V376.553C460.899 377.647 461.091 378.577 461.475 379.344C461.865 380.112 462.409 380.697 463.105 381.102C463.801 381.5 464.614 381.699 465.544 381.699C466.148 381.699 466.698 381.614 467.195 381.443C467.693 381.266 468.122 381.003 468.485 380.655C468.847 380.307 469.124 379.877 469.316 379.366L472.33 379.909C472.089 380.797 471.656 381.575 471.031 382.242C470.413 382.903 469.635 383.418 468.698 383.787C467.767 384.149 466.705 384.33 465.512 384.33ZM486.105 384.202C485.523 384.202 485.022 383.996 484.603 383.585C484.184 383.165 483.975 382.661 483.975 382.072C483.975 381.489 484.184 380.992 484.603 380.58C485.022 380.161 485.523 379.952 486.105 379.952C486.688 379.952 487.188 380.161 487.607 380.58C488.026 380.992 488.236 381.489 488.236 382.072C488.236 382.462 488.137 382.821 487.938 383.148C487.746 383.467 487.49 383.723 487.171 383.915C486.851 384.107 486.496 384.202 486.105 384.202ZM486.105 372.292C485.523 372.292 485.022 372.082 484.603 371.663C484.184 371.244 483.975 370.744 483.975 370.161C483.975 369.579 484.184 369.082 484.603 368.67C485.022 368.251 485.523 368.041 486.105 368.041C486.688 368.041 487.188 368.251 487.607 368.67C488.026 369.082 488.236 369.579 488.236 370.161C488.236 370.552 488.137 370.911 487.938 371.237C487.746 371.557 487.49 371.812 487.171 372.004C486.851 372.196 486.496 372.292 486.105 372.292ZM498.628 374.945C498.628 377.622 498.277 380.083 497.574 382.327C496.871 384.572 495.844 386.642 494.495 388.538H491.576C492.101 387.835 492.591 386.972 493.046 385.95C493.501 384.927 493.898 383.808 494.239 382.594C494.58 381.372 494.846 380.108 495.038 378.801C495.23 377.494 495.326 376.209 495.326 374.945C495.326 373.261 495.159 371.553 494.825 369.82C494.491 368.087 494.04 366.479 493.472 364.994C492.904 363.51 492.272 362.299 491.576 361.362H494.495C495.844 363.258 496.871 365.328 497.574 367.572C498.277 369.817 498.628 372.274 498.628 374.945Z" fill="black"/>
</svg>
